# AST/ASF file generated using VICON BodyLanguage
# -----------------------------------------------
:version 1.10
:name VICON
:units
  mass 1.0
  length 0.45
  angle deg
:documentation
   .ast/.asf automatically generated from VICON data using
   VICON BodyBuilder and BodyLanguage model FoxedUp or BRILLIANT.MOD
:root
   order TX TY TZ RX RY RZ
   axis XYZ
   position 0 0 0  
   orientation 0 0 0 
:bonedata
  begin
     id 1 
     name lhipjoint
     direction 0.596438 -0.722117 0.35044 
     length 2.43043 
     axis 0 0 0  XYZ
  end
  begin
     id 2 
     name lfemur
     direction 0.34202 -0.939693 0  
     length 7.0339  
     axis 0 0 20  XYZ
    dof rx ry rz
    limits (-160.0 20.0)
           (-70.0 70.0)
           (-60.0 70.0)
  end
  begin
     id 3 
     name ltibia
     direction 0.34202 -0.939693 0   
     length 7.56602   
     axis 0 0 20   XYZ
    dof rx
    limits (-10.0 170.0)
  end
  begin
     id 4 
     name lfoot
     direction 0.0985677 -0.270812 0.957572   
     length 1.85172   
     axis -90 7.62852e-016 20   XYZ
    dof rx rz
    limits (-45.0 90.0)
           (-70.0 20.0)
  end
  begin
     id 5 
     name ltoes
     direction 1.53534e-011 -4.21843e-011 1   
     length 0.929904   
     axis -90 7.62852e-016 20   XYZ
    dof rx
    limits (-90.0 20.0)
  end
  begin
     id 6 
     name rhipjoint
     direction -0.585088 -0.729594 0.354068   
     length 2.40552  
     axis 0 0 0  XYZ 
  end
  begin
     id 7 
     name rfemur
     direction -0.34202 -0.939693 0   
     length 7.12573   
     axis 0 0 -20   XYZ
    dof rx ry rz
    limits (-160.0 20.0)
           (-70.0 70.0)
           (-70.0 60.0)
  end
  begin
     id 8 
     name rtibia
     direction -0.34202 -0.939693 0   
     length 7.35777   
     axis 0 0 -20   XYZ
    dof rx
    limits (-10.0 170.0)
 end
 begin
     id 9 
     name rfoot
     direction -0.120907 -0.33219 0.935431   
     length 2.0994  
     axis -90 -7.62852e-016 -20   XYZ
    dof rx rz
    limits (-45.0 90.0)
           (-20.0 70.0)
  end
  begin
     id 10 
     name rtoes
     direction -1.53577e-011 -4.21787e-011 1   
     length 1.04244   
     axis -90 -7.62852e-016 -20   XYZ
    dof rx
    limits (-90.0 20.0)
  end
  begin
     id 11 
     name lowerback
     direction 0.00268363 0.993603 -0.112896   
     length 2.15839   
     axis 0 0 0   XYZ
    dof rx ry rz
    limits (-20.0 45.0)
           (-30.0 30.0)
           (-30.0 30.0)
  end
  begin
     id 12 
     name upperback
     direction 0.0272563 0.999411 -0.0208618   
     length 2.16443   
     axis 0 0 0   XYZ
    dof rx ry rz
    limits (-20.0 45.0)
           (-30.0 30.0)
           (-30.0 30.0)
  end
  begin
     id 13 
     name thorax
     direction 0.0254655 0.999174 0.0316806   
     length 2.19003   
     axis 0 0 0   XYZ
    dof rx ry rz
    limits (-20.0 45.0)
           (-30.0 30.0)
           (-30.0 30.0)
  end
  begin
     id 14 
     name lowerneck
     direction -0.0102178 0.988048 0.15381   
     length 1.61507   
     axis 0 0 0   XYZ
    dof rx ry rz
    limits (-20.0 45.0)
           (-30.0 30.0)
           (-30.0 30.0)
  end
  begin
     id 15 
     name upperneck
     direction -0.0061965 0.994088 -0.108398   
     length 1.64042   
     axis 0 0 0   XYZ
    dof rx ry rz
    limits (-20.0 45.0)
           (-30.0 30.0)
           (-30.0 30.0)
  end
  begin
     id 16
     name head
     direction -0.00151929 0.998591 -0.0530385  
     length 1.64343  
     axis 0 0 0   XYZ
    dof rx ry rz
    limits (-20.0 45.0)
           (-30.0 30.0)
           (-30.0 30.0)
  end
  begin
     id 17 
     name lclavicle
     direction 0.948974 0.284245 -0.136574  
     length 3.3483  
     axis 0 0 0   XYZ
    dof ry rz
    limits (-20.0 10.0)
           (0.0 20.0)
  end
  begin
     id 18 
     name lhumerus
     direction 1 -4.48961e-011 1.68576e-027   
     length 4.93485   
     axis -180 -30 -90   XYZ
    dof rx ry rz
    limits (-60.0 90.0)
           (-90.0 90.0)
           (-90.0 90.0)
  end
  begin
     id 19
     name lradius
     direction 1 -4.48965e-011 -2.46405e-027   
     length 3.41719   
     axis -180 -30 -90   XYZ
    dof rx
    limits (-10.0 170.0)
  end
  begin
     id 20
     name lwrist
     direction 1 -4.48968e-011 -8.00486e-028   
     length 1.7086   
     axis 3.27501e-015 90 90   XYZ
    dof ry
    limits (-180.0 0.0)
 end
  begin
     id 21 
     name lhand
     direction 1 -4.48977e-011 -1.60161e-027   
     length 0.6241   
     axis 1.02148e-015 90 90   XYZ
    dof rx rz
    limits (-90.0 90.0)
           (-45.0 45.0)
  end
  begin
     id 22 
     name lfingers
     direction 1 -4.49049e-011 -3.21275e-027   
     length 0.503166   
     axis 2.04295e-015 90 90   XYZ
    dof rx
    limits (0.0 90.0)
  end
  begin
     id 23
     name lthumb
     direction 0.707107 -6.34975e-011 0.707107   
     length 0.722448   
     axis -90 45 -1.62303e-014   XYZ
    dof rx rz
    limits (-45.0 45.0)
           (-45.0 45.0)
  end
  begin
     id 24 
     name rclavicle
     direction -0.904485 0.355099 -0.236246   
     length 3.18329  
     axis 0 0 0   XYZ 
    dof ry rz
    limits (-10.0 20.0)
           (-20.0 0.0)
  end
  begin
     id 25 
     name rhumerus
     direction -1 -4.48953e-011 1.32816e-027  
     length 5.22034   
     axis -180 30 90   XYZ
    dof rx ry rz
    limits (-90.0 60.0)
           (-90.0 90.0)
           (-90.0 90.0)
  end
  begin
     id 26 
     name rradius
     direction -1 -4.48965e-011 -3.93727e-027   
     length 3.41809   
     axis -180 30 90   XYZ
    dof rx
    limits (-10.0 170.0)
  end
  begin
     id 27 
     name rwrist
     direction -1 -4.48962e-011 -8.003e-028   
     length 1.70904   
     axis 3.27501e-015 -90 -90   XYZ
    dof ry
    limits (-180.0 0.0)
  end
  begin
     id 28
     name rhand
     direction -1 -4.49008e-011 -1.60365e-027   
     length 0.77534   
     axis 1.02148e-015 -90 -90   XYZ
    dof rx rz
    limits (-90.0 90.0)
           (-45.0 45.0)
  end
  begin
     id 29
     name rfingers
     direction -1 -4.49001e-011 -3.2064e-027   
     length 0.625099   
     axis 2.04295e-015 -90 -90   XYZ
    dof rx
    limits (0.0 90.0)
  end
  begin
     id 30
     name rthumb
     direction -0.707107 -6.34989e-011 0.707107   
     length 0.897521   
     axis -90 -45 1.62303e-014   XYZ
    dof rx rz
    limits (-45.0 45.0)
           (-45.0 45.0)
  end
:hierarchy
  begin
    root lhipjoint rhipjoint lowerback
    lhipjoint lfemur
    lfemur ltibia
    ltibia lfoot
    lfoot ltoes
    rhipjoint rfemur
    rfemur rtibia
    rtibia rfoot
    rfoot rtoes
    lowerback upperback
    upperback thorax
    thorax lowerneck lclavicle rclavicle
    lowerneck upperneck
    upperneck head
    lclavicle lhumerus
    lhumerus lradius
    lradius lwrist
    lwrist lhand lthumb
    lhand lfingers
    rclavicle rhumerus
    rhumerus rradius
    rradius rwrist
    rwrist rhand rthumb
    rhand rfingers
  end

#!OML:ASF \\sashay\E\Suitcase\Project 1\Capture day 1\Session 1\Male1.ASF
:FULLY-SPECIFIED
:DEGREES
447
root 0.606194 17.3453 -11.5409 3.0992 -0.0635713 -6.1178
lowerback 3.51814 0.563756 4.60075
upperback -0.596073 1.04956 3.67594
thorax -2.5777 0.482356 1.14838
lowerneck -18.054 -2.8958 1.74689
upperneck 20.4342 -2.98128 -6.53367
head 9.28317 -2.00324 -2.93967
rclavicle -1.58779e-014 -2.10712e-014
rhumerus -25.8581 -30.979 -68.9665
rradius 14.9764
rwrist 6.89767
rhand -20.4371 25.5215
rfingers 7.12502
rthumb 5.91782 -4.37582
lclavicle -1.58779e-014 -2.10712e-014
lhumerus -30.9401 1.07607 85.8239
lradius 37.5465
lwrist -3.38272
lhand -3.90385 39.5675
lfingers 7.12502
lthumb 21.8463 68.3544
rfemur 0.533721 4.5871 31.9014
rtibia 16.9658
rfoot -15.814 -8.232
rtoes 13.5649
lfemur -30.605 -0.339523 -11.5727
ltibia 36.708
lfoot -14.7307 5.02553
ltoes 3.86233
448
root 0.605372 17.3396 -11.4437 3.05541 -0.0761003 -6.36964
lowerback 3.74335 0.560808 4.79931
upperback -0.841766 1.08459 3.6068
thorax -2.95371 0.48813 0.961802
lowerneck -17.55 -2.72141 2.17278
upperneck 20.671 -2.78423 -6.81001
head 9.26918 -1.90493 -3.07592
rclavicle -2.02512e-014 9.54166e-015
rhumerus -25.9033 -30.7173 -69.2605
rradius 15.2579
rwrist 6.35376
rhand -20.4149 25.7222
rfingers 7.12502
rthumb 5.93926 -4.17456
lclavicle -2.02512e-014 9.54166e-015
lhumerus -31.7047 0.818691 85.7122
lradius 37.6195
lwrist -3.93303
lhand -3.9266 39.5014
lfingers 7.12502
lthumb 21.8244 68.2908
rfemur 1.41026 4.73187 32.2542
rtibia 16.1918
rfoot -15.7961 -8.35148
rtoes 15.3295
lfemur -30.7535 -0.714252 -11.2383
ltibia 35.4304
lfoot -14.7877 4.62033
ltoes 3.97701
449
root 0.603457 17.3532 -11.3534 3.10068 -0.403723 -6.36328
lowerback 3.64263 0.529875 4.73208
upperback -0.701188 1.02347 3.59473
thorax -2.75323 0.462987 0.991493
lowerneck -18.0273 -2.59303 2.06453
upperneck 20.8163 -2.56103 -6.85187
head 9.42175 -1.82058 -3.06183
rclavicle 1.2101e-014 1.11319e-014
rhumerus -24.9341 -30.1286 -70.0199
rradius 15.5093
rwrist 5.94647
rhand -20.2853 25.8482
rfingers 7.12502
rthumb 6.06433 -4.04498
lclavicle 1.2101e-014 1.11319e-014
lhumerus -31.2655 1.22655 85.5212
lradius 36.7205
lwrist -4.87308
lhand -3.48925 38.9854
lfingers 7.12502
lthumb 22.2444 67.7253
rfemur 2.11252 4.88764 32.272
rtibia 15.3018
rfoot -15.3946 -8.39864
rtoes 14.6068
lfemur -31.1155 -1.18402 -11.0427
ltibia 34.0409
lfoot -14.3707 4.98721
ltoes 5.00695
450
root 0.602458 17.3572 -11.2476 3.20616 -0.774615 -6.32402
lowerback 3.49407 0.555872 4.3992
upperback -0.708007 1.0346 3.68076
thorax -2.68336 0.47555 1.26663
lowerneck -18.1473 -2.66472 2.38223
upperneck 21.0118 -2.61497 -7.40385
head 9.49473 -1.887 -3.32415
rclavicle -1.58531e-014 -9.93923e-015
rhumerus -24.2837 -30.3911 -70.1493
rradius 15.4688
rwrist 6.37214
rhand -20.1007 26.6516
rfingers 7.12502
rthumb 6.24263 -3.23642
lclavicle -1.58531e-014 -9.93923e-015
lhumerus -31.5895 1.65058 85.5306
lradius 36.5888
lwrist -5.55053
lhand -2.88428 39.9044
lfingers 7.12502
lthumb 22.825 68.5739
rfemur 2.95126 5.33328 32.2537
rtibia 14.2748
rfoot -15.0902 -8.36073
rtoes 15.5058
lfemur -31.3109 -1.42658 -10.9611
ltibia 32.8485
lfoot -14.1673 4.72867
ltoes 5.06728
451
root 0.613501 17.351 -11.1604 3.36396 -1.09549 -6.75235
lowerback 3.50264 0.638341 4.84228
upperback -0.889666 1.17694 3.72474
thorax -2.86785 0.535119 1.0568
lowerneck -18.0381 -2.87283 2.84348
upperneck 21.2854 -2.90543 -7.91692
head 9.53371 -2.04479 -3.6242
rclavicle 2.13694e-015 -5.56597e-015
rhumerus -24.2108 -29.183 -70.6372
rradius 16.2713
rwrist 4.91574
rhand -20.0836 26.9158
rfingers 7.12502
rthumb 6.2591 -2.97171
lclavicle 2.13694e-015 -5.56597e-015
lhumerus -31.986 1.5012 85.5233
lradius 36.3155
lwrist -5.58376
lhand -3.55422 39.3228
lfingers 7.12502
lthumb 22.182 68.0701
rfemur 3.64068 5.53614 32.6679
rtibia 13.2478
rfoot -14.6847 -8.23572
rtoes 15.9978
lfemur -31.6975 -1.73246 -10.3259
ltibia 31.5364
lfoot -13.7453 4.79629
ltoes 6.19186
452
root 0.621818 17.3615 -11.0442 3.44522 -1.39387 -6.33948
lowerback 3.20559 0.770701 4.47489
upperback -0.954734 1.31109 3.44457
thorax -2.76573 0.606875 0.967905
lowerneck -17.6115 -2.9998 3.08669
upperneck 21.2336 -3.13962 -7.96281
head 9.41409 -2.13375 -3.69477
rclavicle 6.65929e-015 2.34566e-014
rhumerus -23.9773 -29.2076 -70.9397
rradius 16.3347
rwrist 4.69447
rhand -20.2346 27.3061
rfingers 7.12502
rthumb 6.11335 -2.58566
lclavicle 6.65929e-015 2.34566e-014
lhumerus -32.3863 1.16692 85.3793
lradius 36.2276
lwrist -5.92271
lhand -2.31132 41.1558
lfingers 7.12502
lthumb 23.3748 69.7564
rfemur 4.61268 5.40154 32.1212
rtibia 12.1338
rfoot -14.3906 -7.8823
rtoes 16.1456
lfemur -31.8405 -1.97253 -10.7598
ltibia 30.3068
lfoot -13.8173 4.75739
ltoes 4.84376
453
root 0.627576 17.3592 -10.956 3.67811 -1.4526 -6.33072
lowerback 3.07857 0.707687 4.32228
upperback -1.01571 1.21719 3.52477
thorax -2.76336 0.563075 1.14226
lowerneck -17.7486 -2.77248 2.90067
upperneck 21.3735 -2.76265 -7.9667
head 9.51789 -1.97611 -3.62846
rclavicle -1.59028e-015 2.38542e-015
rhumerus -23.4622 -28.602 -71.209
rradius 16.8278
rwrist 4.08523
rhand -20.0165 27.2585
rfingers 7.12502
rthumb 6.32388 -2.62714
lclavicle -1.59028e-015 2.38542e-015
lhumerus -32.6679 1.75316 85.344
lradius 35.9479
lwrist -6.23563
lhand -2.787 39.8695
lfingers 7.12502
lthumb 22.9184 68.5274
rfemur 5.19032 5.28192 32.0697
rtibia 11.1313
rfoot -14.0894 -7.72838
rtoes 16.311
lfemur -32.3606 -2.28853 -10.6781
ltibia 29.1094
lfoot -13.5642 4.85473
ltoes 3.91704
454
root 0.633556 17.3604 -10.8423 3.76615 -1.68487 -6.46139
lowerback 2.69953 0.77752 4.46603
upperback -0.913047 1.28162 3.47695
thorax -2.43887 0.597754 1.01496
lowerneck -18.196 -2.64472 2.84537
upperneck 21.8031 -2.59219 -7.80643
head 9.76765 -1.89036 -3.57055
rclavicle 1.51076e-014 2.38542e-015
rhumerus -22.894 -29.1822 -71.3943
rradius 16.8066
rwrist 4.58584
rhand -19.9532 28.1308
rfingers 7.12502
rthumb 6.38497 -1.75296
lclavicle 1.51076e-014 2.38542e-015
lhumerus -32.4648 1.61766 85.3351
lradius 35.2002
lwrist -6.60848
lhand -2.38628 40.2493
lfingers 7.12502
lthumb 23.3029 68.859
rfemur 6.24119 5.37318 32.1992
rtibia 9.74742
rfoot -13.6058 -7.7241
rtoes 14.5492
lfemur -32.6259 -2.77005 -10.3614
ltibia 28.0392
lfoot -13.4288 5.1732
ltoes 3.37063
455
root 0.635983 17.3469 -10.7486 3.89945 -2.02627 -6.64904
lowerback 3.03684 0.842718 4.42565
upperback -1.25347 1.41413 3.6023
thorax -2.98356 0.65511 1.15404
lowerneck -17.8771 -2.61658 2.68163
upperneck 22.0657 -2.47812 -7.85578
head 9.81069 -1.85442 -3.54724
rclavicle 4.57205e-015 5.56597e-015
rhumerus -23.0541 -28.2662 -71.3842
rradius 17.2304
rwrist 3.63839
rhand -19.8329 28.2719
rfingers 7.12502
rthumb 6.50114 -1.60835
lclavicle 4.57205e-015 5.56597e-015
lhumerus -33.3447 2.11553 85.2941
lradius 35.1133
lwrist -6.96779
lhand -2.14499 39.8822
lfingers 7.12502
lthumb 23.5343 68.4624
rfemur 7.08718 5.57902 32.4118
rtibia 8.56724
rfoot -13.0729 -7.64598
rtoes 14.7313
lfemur -32.9034 -2.983 -9.92807
ltibia 26.9112
lfoot -13.5342 5.25256
ltoes 6.35707
456
root 0.647067 17.3522 -10.6487 4.08557 -2.24282 -7.0459
lowerback 2.68156 0.88661 4.8474
upperback -1.14085 1.45696 3.64672
thorax -2.65786 0.674851 0.968961
lowerneck -18.0427 -2.53959 2.8134
upperneck 21.9662 -2.39058 -7.95237
head 9.80838 -1.81581 -3.59318
rclavicle 1.19271e-015 4.41302e-014
rhumerus -22.2731 -28.1345 -71.8269
rradius 17.3723
rwrist 3.44124
rhand -19.7984 28.6308
rfingers 7.12502
rthumb 6.53446 -1.24835
lclavicle 1.19271e-015 4.41302e-014
lhumerus -33.0469 2.07308 85.212
lradius 34.416
lwrist -7.17512
lhand -2.09169 39.8444
lfingers 7.12502
lthumb 23.5855 68.418
rfemur 7.80699 5.69314 32.7821
rtibia 7.36876
rfoot -12.4546 -7.6538
rtoes 14.0738
lfemur -33.249 -3.36654 -9.32509
ltibia 25.9361
lfoot -13.164 5.28107
ltoes 3.83648
